# Tiled2Unity generated file. Do not modify by hand.
# Wavefront file for 'peli_mesh_0001.obj'

# Vertices (Count = 64)
v -2816 -960 0
v -2848 -960 0
v -2848 -928 0
v -2816 -928 0
v -2816 -992 0
v -2848 -992 0
v -2848 -960 0
v -2816 -960 0
v -2784 -1024 0
v -2816 -1024 0
v -2816 -992 0
v -2784 -992 0
v -2816 -1024 0
v -2848 -1024 0
v -2848 -992 0
v -2816 -992 0
v -2752 -1056 0
v -2784 -1056 0
v -2784 -1024 0
v -2752 -1024 0
v -2784 -1056 0
v -2816 -1056 0
v -2816 -1024 0
v -2784 -1024 0
v -2816 -1056 0
v -2848 -1056 0
v -2848 -1024 0
v -2816 -1024 0
v -2720 -1088 0
v -2752 -1088 0
v -2752 -1056 0
v -2720 -1056 0
v -2752 -1088 0
v -2784 -1088 0
v -2784 -1056 0
v -2752 -1056 0
v -2784 -1088 0
v -2816 -1088 0
v -2816 -1056 0
v -2784 -1056 0
v -2688 -1120 0
v -2720 -1120 0
v -2720 -1088 0
v -2688 -1088 0
v -2720 -1120 0
v -2752 -1120 0
v -2752 -1088 0
v -2720 -1088 0
v -2752 -1120 0
v -2784 -1120 0
v -2784 -1088 0
v -2752 -1088 0
v -2656 -1152 0
v -2688 -1152 0
v -2688 -1120 0
v -2656 -1120 0
v -2688 -1152 0
v -2720 -1152 0
v -2720 -1120 0
v -2688 -1120 0
v -2720 -1152 0
v -2752 -1152 0
v -2752 -1120 0
v -2720 -1120 0

# Texture cooridinates (Count = 6)
vt 0 0.96
vt 0.04 0.96
vt 0.04 1
vt 0 1
vt 0 0.92
vt 0.04 0.92

# Normal
vn 0 0 -1

# Mesh description
g peli_mesh_0001

# Faces
f 1/1/1 2/2/1 3/3/1 4/4/1
f 5/1/1 6/2/1 7/3/1 8/4/1
f 9/5/1 10/6/1 11/2/1 12/1/1
f 13/1/1 14/2/1 15/3/1 16/4/1
f 17/5/1 18/6/1 19/2/1 20/1/1
f 21/1/1 22/2/1 23/3/1 24/4/1
f 25/1/1 26/2/1 27/3/1 28/4/1
f 29/5/1 30/6/1 31/2/1 32/1/1
f 33/1/1 34/2/1 35/3/1 36/4/1
f 37/1/1 38/2/1 39/3/1 40/4/1
f 41/5/1 42/6/1 43/2/1 44/1/1
f 45/1/1 46/2/1 47/3/1 48/4/1
f 49/1/1 50/2/1 51/3/1 52/4/1
f 53/5/1 54/6/1 55/2/1 56/1/1
f 57/1/1 58/2/1 59/3/1 60/4/1
f 61/1/1 62/2/1 63/3/1 64/4/1

