# Tiled2Unity generated file. Do not modify by hand.
# Wavefront file for 'peli_mesh_0006.obj'

# Vertices (Count = 60)
v -1984 -480 0
v -2016 -480 0
v -2016 -448 0
v -1984 -448 0
v -2016 -480 0
v -2048 -480 0
v -2048 -448 0
v -2016 -448 0
v -2496 -1440 0
v -2528 -1440 0
v -2528 -1408 0
v -2496 -1408 0
v -2528 -1440 0
v -2560 -1440 0
v -2560 -1408 0
v -2528 -1408 0
v -2560 -1440 0
v -2592 -1440 0
v -2592 -1408 0
v -2560 -1408 0
v -2496 -1472 0
v -2528 -1472 0
v -2528 -1440 0
v -2496 -1440 0
v -2528 -1472 0
v -2560 -1472 0
v -2560 -1440 0
v -2528 -1440 0
v -2496 -1504 0
v -2528 -1504 0
v -2528 -1472 0
v -2496 -1472 0
v -2528 -1504 0
v -2560 -1504 0
v -2560 -1472 0
v -2528 -1472 0
v -2496 -1536 0
v -2528 -1536 0
v -2528 -1504 0
v -2496 -1504 0
v -2528 -1536 0
v -2560 -1536 0
v -2560 -1504 0
v -2528 -1504 0
v -2496 -1568 0
v -2528 -1568 0
v -2528 -1536 0
v -2496 -1536 0
v -2528 -1568 0
v -2560 -1568 0
v -2560 -1536 0
v -2528 -1536 0
v -2496 -1600 0
v -2528 -1600 0
v -2528 -1568 0
v -2496 -1568 0
v -2528 -1600 0
v -2560 -1600 0
v -2560 -1568 0
v -2528 -1568 0

# Texture cooridinates (Count = 33)
vt 0.7307692 0.3125
vt 0.7692308 0.3125
vt 0.7692308 0.375
vt 0.7307692 0.375
vt 0.6538461 0.3125
vt 0.6923077 0.3125
vt 0.6923077 0.375
vt 0.6538461 0.375
vt 0.7307692 0.875
vt 0.7692308 0.875
vt 0.7692308 0.9375
vt 0.7307692 0.9375
vt 0.8076923 0.875
vt 0.8076923 0.9375
vt 0.2692308 0.625
vt 0.3076923 0.625
vt 0.3076923 0.6875
vt 0.2692308 0.6875
vt 0.7307692 0.8125
vt 0.7692308 0.8125
vt 0.8076923 0.8125
vt 0.7307692 0.75
vt 0.7692308 0.75
vt 0.8076923 0.75
vt 0.7307692 0.6875
vt 0.7692308 0.6875
vt 0.8076923 0.6875
vt 0.7307692 0.625
vt 0.7692308 0.625
vt 0.8076923 0.625
vt 0.7307692 0.5625
vt 0.7692308 0.5625
vt 0.8076923 0.5625

# Normal
vn 0 0 -1

# Mesh description
g peli_mesh_0006

# Faces
f 1/1/1 2/2/1 3/3/1 4/4/1
f 5/5/1 6/6/1 7/7/1 8/8/1
f 9/9/1 10/10/1 11/11/1 12/12/1
f 13/10/1 14/13/1 15/14/1 16/11/1
f 17/15/1 18/16/1 19/17/1 20/18/1
f 21/19/1 22/20/1 23/10/1 24/9/1
f 25/20/1 26/21/1 27/13/1 28/10/1
f 29/22/1 30/23/1 31/20/1 32/19/1
f 33/23/1 34/24/1 35/21/1 36/20/1
f 37/25/1 38/26/1 39/23/1 40/22/1
f 41/26/1 42/27/1 43/24/1 44/23/1
f 45/28/1 46/29/1 47/26/1 48/25/1
f 49/29/1 50/30/1 51/27/1 52/26/1
f 53/31/1 54/32/1 55/29/1 56/28/1
f 57/32/1 58/33/1 59/30/1 60/29/1

