# Tiled2Unity generated file. Do not modify by hand.
# Wavefront file for 'peli_mesh_0004.obj'

# Vertices (Count = 328)
v -1600 -448 0
v -1632 -448 0
v -1632 -416 0
v -1600 -416 0
v -1632 -448 0
v -1664 -448 0
v -1664 -416 0
v -1632 -416 0
v -1664 -448 0
v -1696 -448 0
v -1696 -416 0
v -1664 -416 0
v -1696 -448 0
v -1728 -448 0
v -1728 -416 0
v -1696 -416 0
v -1728 -448 0
v -1760 -448 0
v -1760 -416 0
v -1728 -416 0
v -1760 -448 0
v -1792 -448 0
v -1792 -416 0
v -1760 -416 0
v -1600 -480 0
v -1632 -480 0
v -1632 -448 0
v -1600 -448 0
v -1632 -480 0
v -1664 -480 0
v -1664 -448 0
v -1632 -448 0
v -1664 -480 0
v -1696 -480 0
v -1696 -448 0
v -1664 -448 0
v -1696 -480 0
v -1728 -480 0
v -1728 -448 0
v -1696 -448 0
v -1728 -480 0
v -1760 -480 0
v -1760 -448 0
v -1728 -448 0
v -1760 -480 0
v -1792 -480 0
v -1792 -448 0
v -1760 -448 0
v -1792 -480 0
v -1824 -480 0
v -1824 -448 0
v -1792 -448 0
v -1824 -480 0
v -1856 -480 0
v -1856 -448 0
v -1824 -448 0
v -1856 -480 0
v -1888 -480 0
v -1888 -448 0
v -1856 -448 0
v -1888 -480 0
v -1920 -480 0
v -1920 -448 0
v -1888 -448 0
v -1920 -480 0
v -1952 -480 0
v -1952 -448 0
v -1920 -448 0
v -1952 -480 0
v -1984 -480 0
v -1984 -448 0
v -1952 -448 0
v -2112 -480 0
v -2144 -480 0
v -2144 -448 0
v -2112 -448 0
v -2144 -480 0
v -2176 -480 0
v -2176 -448 0
v -2144 -448 0
v -1632 -512 0
v -1664 -512 0
v -1664 -480 0
v -1632 -480 0
v -1664 -512 0
v -1696 -512 0
v -1696 -480 0
v -1664 -480 0
v -1696 -512 0
v -1728 -512 0
v -1728 -480 0
v -1696 -480 0
v -1728 -512 0
v -1760 -512 0
v -1760 -480 0
v -1728 -480 0
v -1760 -512 0
v -1792 -512 0
v -1792 -480 0
v -1760 -480 0
v -1792 -512 0
v -1824 -512 0
v -1824 -480 0
v -1792 -480 0
v -1824 -512 0
v -1856 -512 0
v -1856 -480 0
v -1824 -480 0
v -1856 -512 0
v -1888 -512 0
v -1888 -480 0
v -1856 -480 0
v -1888 -512 0
v -1920 -512 0
v -1920 -480 0
v -1888 -480 0
v -1920 -512 0
v -1952 -512 0
v -1952 -480 0
v -1920 -480 0
v -1952 -512 0
v -1984 -512 0
v -1984 -480 0
v -1952 -480 0
v -1984 -512 0
v -2016 -512 0
v -2016 -480 0
v -1984 -480 0
v -2112 -512 0
v -2144 -512 0
v -2144 -480 0
v -2112 -480 0
v -2144 -512 0
v -2176 -512 0
v -2176 -480 0
v -2144 -480 0
v -1600 -544 0
v -1632 -544 0
v -1632 -512 0
v -1600 -512 0
v -1632 -544 0
v -1664 -544 0
v -1664 -512 0
v -1632 -512 0
v -1664 -544 0
v -1696 -544 0
v -1696 -512 0
v -1664 -512 0
v -1696 -544 0
v -1728 -544 0
v -1728 -512 0
v -1696 -512 0
v -1728 -544 0
v -1760 -544 0
v -1760 -512 0
v -1728 -512 0
v -1760 -544 0
v -1792 -544 0
v -1792 -512 0
v -1760 -512 0
v -1952 -544 0
v -1984 -544 0
v -1984 -512 0
v -1952 -512 0
v -1984 -544 0
v -2016 -544 0
v -2016 -512 0
v -1984 -512 0
v -1600 -576 0
v -1632 -576 0
v -1632 -544 0
v -1600 -544 0
v -1632 -576 0
v -1664 -576 0
v -1664 -544 0
v -1632 -544 0
v -1664 -576 0
v -1696 -576 0
v -1696 -544 0
v -1664 -544 0
v -1696 -576 0
v -1728 -576 0
v -1728 -544 0
v -1696 -544 0
v -1728 -576 0
v -1760 -576 0
v -1760 -544 0
v -1728 -544 0
v -1760 -576 0
v -1792 -576 0
v -1792 -544 0
v -1760 -544 0
v -1952 -576 0
v -1984 -576 0
v -1984 -544 0
v -1952 -544 0
v -1984 -576 0
v -2016 -576 0
v -2016 -544 0
v -1984 -544 0
v -2016 -576 0
v -2048 -576 0
v -2048 -544 0
v -2016 -544 0
v -2048 -576 0
v -2080 -576 0
v -2080 -544 0
v -2048 -544 0
v -2080 -576 0
v -2112 -576 0
v -2112 -544 0
v -2080 -544 0
v -1600 -608 0
v -1632 -608 0
v -1632 -576 0
v -1600 -576 0
v -1632 -608 0
v -1664 -608 0
v -1664 -576 0
v -1632 -576 0
v -1664 -608 0
v -1696 -608 0
v -1696 -576 0
v -1664 -576 0
v -1696 -608 0
v -1728 -608 0
v -1728 -576 0
v -1696 -576 0
v -1728 -608 0
v -1760 -608 0
v -1760 -576 0
v -1728 -576 0
v -1760 -608 0
v -1792 -608 0
v -1792 -576 0
v -1760 -576 0
v -1664 -640 0
v -1696 -640 0
v -1696 -608 0
v -1664 -608 0
v -1696 -640 0
v -1728 -640 0
v -1728 -608 0
v -1696 -608 0
v -1728 -640 0
v -1760 -640 0
v -1760 -608 0
v -1728 -608 0
v -1760 -640 0
v -1792 -640 0
v -1792 -608 0
v -1760 -608 0
v -1824 -864 0
v -1856 -864 0
v -1856 -832 0
v -1824 -832 0
v -1856 -864 0
v -1888 -864 0
v -1888 -832 0
v -1856 -832 0
v -1888 -864 0
v -1920 -864 0
v -1920 -832 0
v -1888 -832 0
v -1856 -896 0
v -1888 -896 0
v -1888 -864 0
v -1856 -864 0
v -1856 -928 0
v -1888 -928 0
v -1888 -896 0
v -1856 -896 0
v -1888 -928 0
v -1920 -928 0
v -1920 -896 0
v -1888 -896 0
v -1856 -960 0
v -1888 -960 0
v -1888 -928 0
v -1856 -928 0
v -1888 -960 0
v -1920 -960 0
v -1920 -928 0
v -1888 -928 0
v -1856 -992 0
v -1888 -992 0
v -1888 -960 0
v -1856 -960 0
v -1888 -992 0
v -1920 -992 0
v -1920 -960 0
v -1888 -960 0
v -1856 -1024 0
v -1888 -1024 0
v -1888 -992 0
v -1856 -992 0
v -1888 -1024 0
v -1920 -1024 0
v -1920 -992 0
v -1888 -992 0
v -2528 -1184 0
v -2560 -1184 0
v -2560 -1152 0
v -2528 -1152 0
v -2528 -1216 0
v -2560 -1216 0
v -2560 -1184 0
v -2528 -1184 0
v -2560 -1216 0
v -2592 -1216 0
v -2592 -1184 0
v -2560 -1184 0
v -2592 -1216 0
v -2624 -1216 0
v -2624 -1184 0
v -2592 -1184 0
v -2528 -1248 0
v -2560 -1248 0
v -2560 -1216 0
v -2528 -1216 0
v -2560 -1248 0
v -2592 -1248 0
v -2592 -1216 0
v -2560 -1216 0
v -2592 -1248 0
v -2624 -1248 0
v -2624 -1216 0
v -2592 -1216 0

# Texture cooridinates (Count = 115)
vt 0 0.75
vt 0.05882353 0.75
vt 0.05882353 0.8
vt 0 0.8
vt 0.1176471 0.75
vt 0.1176471 0.8
vt 0.1764706 0.75
vt 0.1764706 0.8
vt 0.2352941 0.75
vt 0.2352941 0.8
vt 0.2941177 0.75
vt 0.2941177 0.8
vt 0.3529412 0.75
vt 0.3529412 0.8
vt 0 0.7
vt 0.05882353 0.7
vt 0.1176471 0.7
vt 0.1764706 0.7
vt 0.2352941 0.7
vt 0.2941177 0.7
vt 0.3529412 0.7
vt 0.4705882 0.1
vt 0.5294118 0.1
vt 0.5294118 0.15
vt 0.4705882 0.15
vt 0.5882353 0.1
vt 0.5882353 0.15
vt 0.6470588 0.1
vt 0.6470588 0.15
vt 0.7058824 0.1
vt 0.7058824 0.15
vt 0.7647059 0.1
vt 0.7647059 0.15
vt 0.8235294 0.1
vt 0.8235294 0.15
vt 0.8823529 0.5
vt 0.9411765 0.5
vt 0.9411765 0.55
vt 0.8823529 0.55
vt 1 0.5
vt 1 0.55
vt 0.05882353 0.65
vt 0.1176471 0.65
vt 0.1764706 0.65
vt 0.2352941 0.65
vt 0.2941177 0.65
vt 0.3529412 0.65
vt 0.4705882 0.05000001
vt 0.5294118 0.05000001
vt 0.5882353 0.05000001
vt 0.6470588 0.05000001
vt 0.7058824 0.05000001
vt 0.7647059 0.05000001
vt 0.8235294 0.05000001
vt 0.8823529 0.05000001
vt 0.8823529 0.1
vt 0.8823529 0.45
vt 0.9411765 0.45
vt 1 0.45
vt 0 0.6
vt 0.05882353 0.6
vt 0 0.65
vt 0.1176471 0.6
vt 0.1764706 0.6
vt 0.2352941 0.6
vt 0.2941177 0.6
vt 0.3529412 0.6
vt 0.5882353 0.4
vt 0.6470588 0.4
vt 0.6470588 0.45
vt 0.5882353 0.45
vt 0.7058824 0.4
vt 0.7058824 0.45
vt 0 0.55
vt 0.05882353 0.55
vt 0.1176471 0.55
vt 0.1764706 0.55
vt 0.2352941 0.55
vt 0.2941177 0.55
vt 0.3529412 0.55
vt 0.5882353 0.35
vt 0.6470588 0.35
vt 0.7058824 0.35
vt 0.7647059 0.35
vt 0.7647059 0.4
vt 0.8235294 0.35
vt 0.8235294 0.4
vt 0.8823529 0.35
vt 0.8823529 0.4
vt 0 0.5
vt 0.05882353 0.5
vt 0.1176471 0.5
vt 0.1764706 0.5
vt 0.2352941 0.5
vt 0.2941177 0.5
vt 0.3529412 0.5
vt 0.1176471 0.45
vt 0.1764706 0.45
vt 0.2352941 0.45
vt 0.2941177 0.45
vt 0.3529412 0.45
vt 0.7058824 0.7
vt 0.7647059 0.7
vt 0.7647059 0.75
vt 0.7058824 0.75
vt 0.7058824 0.65
vt 0.7647059 0.65
vt 0.8235294 0.65
vt 0.8235294 0.7
vt 0.8823529 0.65
vt 0.8823529 0.7
vt 0.7058824 0.6
vt 0.7647059 0.6
vt 0.8235294 0.6
vt 0.8823529 0.6

# Normal
vn 0 0 -1

# Mesh description
g peli_mesh_0004

# Faces
f 1/1/1 2/2/1 3/3/1 4/4/1
f 5/2/1 6/5/1 7/6/1 8/3/1
f 9/5/1 10/7/1 11/8/1 12/6/1
f 13/7/1 14/9/1 15/10/1 16/8/1
f 17/9/1 18/11/1 19/12/1 20/10/1
f 21/11/1 22/13/1 23/14/1 24/12/1
f 25/15/1 26/16/1 27/2/1 28/1/1
f 29/16/1 30/17/1 31/5/1 32/2/1
f 33/17/1 34/18/1 35/7/1 36/5/1
f 37/18/1 38/19/1 39/9/1 40/7/1
f 41/19/1 42/20/1 43/11/1 44/9/1
f 45/20/1 46/21/1 47/13/1 48/11/1
f 49/22/1 50/23/1 51/24/1 52/25/1
f 53/23/1 54/26/1 55/27/1 56/24/1
f 57/26/1 58/28/1 59/29/1 60/27/1
f 61/28/1 62/30/1 63/31/1 64/29/1
f 65/30/1 66/32/1 67/33/1 68/31/1
f 69/32/1 70/34/1 71/35/1 72/33/1
f 73/36/1 74/37/1 75/38/1 76/39/1
f 77/37/1 78/40/1 79/41/1 80/38/1
f 81/42/1 82/43/1 83/17/1 84/16/1
f 85/43/1 86/44/1 87/18/1 88/17/1
f 89/44/1 90/45/1 91/19/1 92/18/1
f 93/45/1 94/46/1 95/20/1 96/19/1
f 97/46/1 98/47/1 99/21/1 100/20/1
f 101/48/1 102/49/1 103/23/1 104/22/1
f 105/49/1 106/50/1 107/26/1 108/23/1
f 109/50/1 110/51/1 111/28/1 112/26/1
f 113/51/1 114/52/1 115/30/1 116/28/1
f 117/52/1 118/53/1 119/32/1 120/30/1
f 121/53/1 122/54/1 123/34/1 124/32/1
f 125/54/1 126/55/1 127/56/1 128/34/1
f 129/57/1 130/58/1 131/37/1 132/36/1
f 133/58/1 134/59/1 135/40/1 136/37/1
f 137/60/1 138/61/1 139/42/1 140/62/1
f 141/61/1 142/63/1 143/43/1 144/42/1
f 145/63/1 146/64/1 147/44/1 148/43/1
f 149/64/1 150/65/1 151/45/1 152/44/1
f 153/65/1 154/66/1 155/46/1 156/45/1
f 157/66/1 158/67/1 159/47/1 160/46/1
f 161/68/1 162/69/1 163/70/1 164/71/1
f 165/69/1 166/72/1 167/73/1 168/70/1
f 169/74/1 170/75/1 171/61/1 172/60/1
f 173/75/1 174/76/1 175/63/1 176/61/1
f 177/76/1 178/77/1 179/64/1 180/63/1
f 181/77/1 182/78/1 183/65/1 184/64/1
f 185/78/1 186/79/1 187/66/1 188/65/1
f 189/79/1 190/80/1 191/67/1 192/66/1
f 193/81/1 194/82/1 195/69/1 196/68/1
f 197/82/1 198/83/1 199/72/1 200/69/1
f 201/83/1 202/84/1 203/85/1 204/72/1
f 205/84/1 206/86/1 207/87/1 208/85/1
f 209/86/1 210/88/1 211/89/1 212/87/1
f 213/90/1 214/91/1 215/75/1 216/74/1
f 217/91/1 218/92/1 219/76/1 220/75/1
f 221/92/1 222/93/1 223/77/1 224/76/1
f 225/93/1 226/94/1 227/78/1 228/77/1
f 229/94/1 230/95/1 231/79/1 232/78/1
f 233/95/1 234/96/1 235/80/1 236/79/1
f 237/97/1 238/98/1 239/93/1 240/92/1
f 241/98/1 242/99/1 243/94/1 244/93/1
f 245/99/1 246/100/1 247/95/1 248/94/1
f 249/100/1 250/101/1 251/96/1 252/95/1
f 253/79/1 254/80/1 255/67/1 256/66/1
f 257/79/1 258/80/1 259/67/1 260/66/1
f 261/79/1 262/80/1 263/67/1 264/66/1
f 265/79/1 266/80/1 267/67/1 268/66/1
f 269/79/1 270/80/1 271/67/1 272/66/1
f 273/79/1 274/80/1 275/67/1 276/66/1
f 277/79/1 278/80/1 279/67/1 280/66/1
f 281/79/1 282/80/1 283/67/1 284/66/1
f 285/79/1 286/80/1 287/67/1 288/66/1
f 289/79/1 290/80/1 291/67/1 292/66/1
f 293/79/1 294/80/1 295/67/1 296/66/1
f 297/79/1 298/80/1 299/67/1 300/66/1
f 301/102/1 302/103/1 303/104/1 304/105/1
f 305/106/1 306/107/1 307/103/1 308/102/1
f 309/107/1 310/108/1 311/109/1 312/103/1
f 313/108/1 314/110/1 315/111/1 316/109/1
f 317/112/1 318/113/1 319/107/1 320/106/1
f 321/113/1 322/114/1 323/108/1 324/107/1
f 325/114/1 326/115/1 327/110/1 328/108/1

